<svg  viewBox="0 0 210 210" width="210" height="210" fill="none" xmlns="http://www.w3.org/2000/svg">
<path d="M11.0405 119.109C7.20262 117.264 3.59125 115.023 0.259445 112.439C4.0755 166.958 49.5112 210 105 210C120.867 210 135.912 206.48 149.397 200.179C145.48 198.502 141.778 196.419 138.343 193.984C127.968 197.873 116.732 200 105 200C57.3271 200 17.8558 164.885 11.0405 119.109Z" fill="currentColor"/>
<path d="M198.959 90.8912C202.797 92.7358 206.409 94.9767 209.741 97.5609C205.924 43.0425 160.489 0 105 0C89.1328 0 74.0876 3.51956 60.6025 9.82058C64.5197 11.4983 68.2223 13.581 71.6575 16.0159C82.0319 12.1268 93.2676 10 105 10C152.673 10 192.144 45.1152 198.959 90.8912Z" fill="currentColor"/>
<path d="M80.4328 23.6043C88.2104 21.26 96.4581 20 105 20C145.736 20 179.779 48.6555 188.071 86.9085C184.607 86.0126 181.023 85.4182 177.346 85.155C168.646 53.3641 139.551 30 105 30C98.8669 30 92.9057 30.7362 87.2001 32.1249C85.2024 29.0808 82.9354 26.2292 80.4328 23.6043Z" fill="currentColor"/>
<path d="M21.9294 123.092C30.2214 161.344 64.2642 190 105 190C113.542 190 121.79 188.74 129.567 186.396C127.065 183.771 124.798 180.919 122.8 177.875C117.094 179.264 111.133 180 105 180C70.4485 180 41.354 156.636 32.6535 124.845C28.9773 124.582 25.3927 123.987 21.9294 123.092Z" fill="currentColor"/>
</svg>
